<?xml version="1.0" encoding="utf-8"?>
<!-- Generator: Adobe Illustrator 16.0.0, SVG Export Plug-In . SVG Version: 6.00 Build 0)  -->
<!DOCTYPE svg PUBLIC "-//W3C//DTD SVG 1.1//EN" "http://www.w3.org/Graphics/SVG/1.1/DTD/svg11.dtd">
<svg version="1.1" id="Layer_1" xmlns="http://www.w3.org/2000/svg" xmlns:xlink="http://www.w3.org/1999/xlink" x="0px" y="0px"
	 width="32px" height="32px" viewBox="34 34 32 32" enable-background="new 34 34 32 32" xml:space="preserve">
<g>
	<g id="XMLID_5_">
		<g>
			<g>
				<path fill="#FFFFFF" d="M60.168,51.372c1.85,0.543,1.532,1.885,1.527,2.785h-4.613c-0.166-0.545-0.576-1.054-1.555-1.34
					l-0.31-0.092c-1.294-0.377-1.988-0.581-2.17-0.988c-0.043-0.147-0.03-0.311,0.402-0.468c1.388-0.403,2.09-0.615,2.256-1.135
					h0.088c-0.024-0.021-0.046-0.041-0.068-0.066c-0.686-0.661-1.209-1.951-1.209-2.993c0-1.473,1.128-2.441,2.195-2.441
					c1.066,0,2.14,1.045,2.14,2.521c0,1.042-0.583,2.292-1.299,2.931C57.7,50.688,58.504,50.884,60.168,51.372z"/>
			</g>
			<g id="XMLID_6_">
				<g>
					<path fill="#FFFFFF" d="M56.982,57.542H42.651c-0.009-0.144-0.018-0.287-0.035-0.456c-0.044-0.566-0.089-1.149,0.07-1.682
						c0.194-0.625,0.696-1.175,1.857-1.513l0.449-0.144c2.042-0.583,3.134-0.912,3.495-1.682l0.115-0.193l-0.009-0.245
						c-0.027-0.018-0.044-0.034-0.08-0.076c-0.123-0.127-0.247-0.254-0.361-0.404c-0.792-1.007-1.356-2.562-1.356-3.845
						c0-1.64,1.216-3.38,3.028-3.38c1.418,0,2.941,1.403,2.941,3.498c0,1.335-0.696,2.991-1.647,3.962
						c-0.062,0.068-0.132,0.127-0.192,0.187l-0.115,0.102l0.035,0.153c0.247,0.962,1.355,1.292,3.583,1.925l0.458,0.145
						c1.153,0.338,1.698,0.896,1.937,1.512h0.008c0.222,0.6,0.193,1.252,0.167,1.859C56.991,57.356,56.991,57.457,56.982,57.542z"/>
				</g>
			</g>
			<g>
				<path fill="#FFFFFF" d="M39.427,51.372c-1.851,0.543-1.532,1.885-1.527,2.785h4.612c0.167-0.545,0.575-1.054,1.556-1.34
					l0.308-0.092c1.296-0.377,1.99-0.581,2.17-0.988c-0.049-0.162,0.04-0.405-0.402-0.468c-1.387-0.403-2.09-0.615-2.255-1.135
					h-0.087c0.023-0.021,0.047-0.041,0.068-0.066c0.686-0.661,1.21-1.951,1.21-2.993c0-1.473-1.127-2.441-2.195-2.441
					c-1.068,0-2.14,1.045-2.14,2.521c0,1.042,0.581,2.292,1.296,2.931C41.895,50.688,41.089,50.884,39.427,51.372z"/>
			</g>
		</g>
	</g>
</g>
</svg>
